<?xml version="1.0" encoding="utf-8"?>
<svg viewBox="0 0 128 128" xmlns="http://www.w3.org/2000/svg">
  <g id="g8" transform="matrix(1.3333330154418945, 0, 0, -1.3333330154418945, -929.1826171875, 1057.213134765625)">
    <g id="g10" transform="scale(0.1)">
      <path d="M 7415.031 7120.948 L 7380.841 7155.124 L 7380.911 7155.192 L 7150.345 7385.764 L 7150.259 7385.683 L 7027.869 7508.086 L 6998.42 7478.627 L 6968.87 7449.1 L 6998.42 7419.546 L 7415.031 7002.95 L 7415.031 7120.948 Z M 7415.031 7895.25 L 7415.031 7777.102 L 7357.255 7719.313 L 7415.031 7661.551 L 7415.031 7543.417 L 7298.176 7660.246 L 7138.365 7500.446 L 7079.313 7559.526 L 7239.096 7719.313 L 7257.267 7737.489 L 7415.031 7895.25 Z M 7415.031 7326.697 L 7322.171 7419.546 L 7381.237 7478.627 L 7415.031 7444.831 L 7415.031 7326.697 Z M 7415.031 7002.95 L 7415.031 7120.948 L 7507.889 7028.086 L 7478.431 6998.627 L 7448.879 6969.1 L 7419.353 6998.627 L 7415.031 7002.95 Z M 7537.292 7539.284 L 7415.031 7661.551 L 7415.031 7543.417 L 7513.34 7445.103 L 7537.292 7421.15 L 7537.292 7539.284 Z M 7537.292 7840.71 L 7537.292 7722.562 L 7448.879 7810.966 L 7415.031 7777.102 L 7415.031 7895.25 L 7419.353 7899.56 L 7448.879 7929.1 L 7478.431 7899.56 L 7537.292 7840.71 Z M 7537.292 7204.444 L 7489.279 7252.445 L 7415.031 7326.697 L 7415.031 7444.831 L 7537.292 7322.578 L 7537.292 7204.444 Z M 7537.292 7421.15 L 7542.865 7415.577 L 7544.795 7417.507 L 7544.551 7417.738 L 7752.397 7625.594 L 7723.103 7654.876 L 7537.292 7840.71 L 7537.292 7722.562 L 7634.5 7625.336 L 7542.865 7533.697 L 7537.292 7539.284 L 7537.292 7421.15 Z M 7551.687 7190.034 L 7537.292 7204.444 L 7537.292 7322.578 L 7610.752 7249.101 L 7810.728 7449.1 L 7810.714 7449.114 L 7869.778 7508.181 L 7899.331 7478.627 L 7928.87 7449.1 L 7899.331 7419.546 L 7610.752 7130.967 L 7551.687 7190.034" style="fill-opacity: 1; fill-rule: evenodd; stroke: none; fill: rgb(239, 84, 85);" id="path16"/>
    </g>
  </g>
</svg>