<?xml version="1.0" encoding="utf-8"?>
<svg viewBox="0 0 128 128" xmlns="http://www.w3.org/2000/svg">
  <path fill-rule="evenodd" fill-opacity="1" d="M 44.073 20.163 L 48.058 24.148 L 56.03 32.119 L 60.002 36.09 C 62.203 38.292 65.771 38.292 67.972 36.09 C 70.647 33.418 69.093 34.996 71.97 32.119 L 79.941 24.148 L 83.926 20.163 C 86.127 17.963 89.695 17.963 91.896 20.163 L 95.882 24.148 L 87.911 32.119 L 79.941 40.089 L 71.97 48.059 L 64 56.03 L 56.03 48.059 L 48.058 40.089 L 40.089 32.119 L 32.118 24.148 L 36.104 20.163 C 38.305 17.963 41.873 17.963 44.073 20.163 Z M 64 8 C 67.905 8 71.07 11.168 71.07 15.072 C 71.07 18.974 67.905 22.141 64 22.141 C 60.094 22.141 56.929 18.974 56.929 15.072 C 56.929 11.168 60.094 8 64 8" style="fill: rgb(239, 84, 85);"/>
  <path fill-rule="evenodd" fill="rgb(30.273438%, 76.190186%, 66.043091%)" fill-opacity="1" d="M 107.837 83.926 L 103.852 79.941 L 95.882 71.97 L 91.91 67.998 C 89.708 65.797 89.708 62.228 91.91 60.028 C 94.583 57.353 93.005 58.908 95.882 56.03 L 103.852 48.059 L 107.837 44.075 C 110.038 41.872 110.038 38.305 107.837 36.104 L 103.852 32.119 L 95.882 40.089 L 87.911 48.059 L 79.941 56.03 L 71.97 64 L 79.941 71.97 L 87.911 79.941 L 95.882 87.911 L 103.852 95.882 L 107.837 91.896 C 110.038 89.694 110.038 86.126 107.837 83.926 Z M 120 64 C 120 60.095 116.834 56.93 112.929 56.93 C 109.024 56.93 105.858 60.095 105.858 64 C 105.858 67.905 109.024 71.07 112.929 71.07 C 116.834 71.07 120 67.905 120 64" style=""/>
  <path fill-rule="evenodd" fill="rgb(37.306213%, 79.837036%, 96.06781%)" fill-opacity="1" d="M 20.163 44.075 L 24.148 48.059 L 32.118 56.03 L 36.09 60.001 C 38.292 62.203 38.292 65.772 36.09 67.973 C 33.417 70.647 34.996 69.093 32.118 71.97 L 24.148 79.941 L 20.163 83.926 C 17.961 86.126 17.961 89.694 20.163 91.896 L 24.148 95.882 L 32.118 87.911 L 40.089 79.941 L 48.058 71.97 L 56.03 64 L 48.058 56.03 L 40.089 48.059 L 32.118 40.089 L 24.148 32.119 L 20.163 36.104 C 17.961 38.305 17.961 41.872 20.163 44.075 Z M 8 64 C 8 67.905 11.166 71.07 15.071 71.07 C 18.976 71.07 22.141 67.905 22.141 64 C 22.141 60.095 18.976 56.93 15.071 56.93 C 11.166 56.93 8 60.095 8 64" style=""/>
  <path fill-rule="evenodd" fill="rgb(45.651245%, 36.927795%, 70.976257%)" fill-opacity="1" d="M 83.926 107.837 L 79.941 103.852 L 71.97 95.882 L 67.999 91.909 C 65.796 89.708 62.228 89.708 60.028 91.909 C 57.353 94.582 58.907 93.005 56.03 95.882 L 48.058 103.852 L 44.073 107.837 C 41.873 110.037 38.305 110.037 36.104 107.837 L 32.118 103.852 L 40.089 95.882 L 48.058 87.911 L 56.03 79.941 L 64 71.97 L 71.97 79.941 L 79.941 87.911 L 87.911 95.882 L 95.882 103.852 L 91.896 107.837 C 89.695 110.037 86.127 110.037 83.926 107.837 Z M 64 120 C 60.094 120 56.929 116.833 56.929 112.928 C 56.929 109.023 60.094 105.859 64 105.859 C 67.905 105.859 71.07 109.023 71.07 112.928 C 71.07 116.833 67.905 120 64 120" style=""/>
</svg>