<?xml version="1.0" encoding="utf-8"?>
<svg viewBox="0 0 128 128" xmlns="http://www.w3.org/2000/svg">
  <path fill-rule="evenodd" fill-opacity="1" d="M 41.226 13.901 L 45.781 18.455 L 54.891 27.564 L 59.431 32.103 C 61.946 34.619 66.024 34.619 68.539 32.103 C 71.596 29.049 69.821 30.853 73.108 27.564 L 82.218 18.455 L 86.772 13.901 C 89.288 11.386 93.366 11.386 95.881 13.901 L 100.437 18.455 L 91.327 27.564 L 82.218 36.673 L 73.108 45.782 L 64 54.891 L 54.891 45.782 L 45.781 36.673 L 36.673 27.564 L 27.563 18.455 L 32.119 13.901 C 34.634 11.386 38.712 11.386 41.226 13.901 Z M 64 0 C 68.463 0 72.08 3.62 72.08 8.082 C 72.08 12.542 68.463 16.161 64 16.161 C 59.536 16.161 55.919 12.542 55.919 8.082 C 55.919 3.62 59.536 0 64 0" style="fill: rgb(51, 51, 51);"/>
  <path fill-rule="evenodd" fill-opacity="1" d="M 114.1 86.773 L 109.545 82.218 L 100.437 73.109 L 95.897 68.569 C 93.381 66.054 93.381 61.975 95.897 59.46 C 98.952 56.403 97.148 58.18 100.437 54.891 L 109.545 45.782 L 114.1 41.228 C 116.615 38.711 116.615 34.634 114.1 32.119 L 109.545 27.564 L 100.437 36.673 L 91.327 45.782 L 82.218 54.891 L 73.108 64 L 82.218 73.109 L 91.327 82.218 L 100.437 91.327 L 109.545 100.436 L 114.1 95.881 C 116.615 93.365 116.615 89.287 114.1 86.773 Z M 128 64 C 128 59.537 124.382 55.92 119.919 55.92 C 115.456 55.92 111.838 59.537 111.838 64 C 111.838 68.463 115.456 72.08 119.919 72.08 C 124.382 72.08 128 68.463 128 64" style="fill: rgb(51, 51, 51);"/>
  <path fill-rule="evenodd" fill-opacity="1" d="M 13.901 41.228 L 18.455 45.782 L 27.563 54.891 L 32.103 59.43 C 34.619 61.946 34.619 66.025 32.103 68.54 C 29.048 71.596 30.852 69.821 27.563 73.109 L 18.455 82.218 L 13.901 86.773 C 11.384 89.287 11.384 93.365 13.901 95.881 L 18.455 100.436 L 27.563 91.327 L 36.673 82.218 L 45.781 73.109 L 54.891 64 L 45.781 54.891 L 36.673 45.782 L 27.563 36.673 L 18.455 27.564 L 13.901 32.119 C 11.384 34.634 11.384 38.711 13.901 41.228 Z M 0 64 C 0 68.463 3.618 72.08 8.081 72.08 C 12.544 72.08 16.161 68.463 16.161 64 C 16.161 59.537 12.544 55.92 8.081 55.92 C 3.618 55.92 0 59.537 0 64" style="fill: rgb(51, 51, 51);"/>
  <path fill-rule="evenodd" fill-opacity="1" d="M 86.772 114.1 L 82.218 109.545 L 73.108 100.436 L 68.57 95.896 C 66.053 93.381 61.975 93.381 59.46 95.896 C 56.403 98.951 58.179 97.148 54.891 100.436 L 45.781 109.545 L 41.226 114.1 C 38.712 116.614 34.634 116.614 32.119 114.1 L 27.563 109.545 L 36.673 100.436 L 45.781 91.327 L 54.891 82.218 L 64 73.109 L 73.108 82.218 L 82.218 91.327 L 91.327 100.436 L 100.437 109.545 L 95.881 114.1 C 93.366 116.614 89.288 116.614 86.772 114.1 Z M 64 128 C 59.536 128 55.919 124.381 55.919 119.918 C 55.919 115.455 59.536 111.839 64 111.839 C 68.463 111.839 72.08 115.455 72.08 119.918 C 72.08 124.381 68.463 128 64 128" style="fill: rgb(51, 51, 51);"/>
</svg>